# xmcd
#
# Track frame offsets:
#	150
#	902
#	40555
#	59824
#	77559
#	95807
#	102342
#	126515
#	161595
#	212558
#
# Disc length: 3513 seconds
#
# Revision: 0
# Processed by: cddbd v1.5.2PL0 Copyright (c) Steve Scherf et al.
# Submitted via: EZCDAudioConverter 8.0.4.1
#
DISCID=7e0db70a
DTITLE=Lazer Lloyd - The Moose Is Loose
DYEAR=2016
DGENRE=Blues
TTITLE0=Introduction
TTITLE1=Crossroads
TTITLE2=Key to the Highway
TTITLE3=Find You
TTITLE4=Help Me
TTITLE5=Dusty
TTITLE6=World Fallin'
TTITLE7=Purple Haze
TTITLE8=Knockin'
TTITLE9=Lean On Me
EXTD=
EXTT0=
EXTT1=
EXTT2=
EXTT3=
EXTT4=
EXTT5=
EXTT6=
EXTT7=
EXTT8=
EXTT9=
PLAYORDER=
